<svg id="close" xmlns="http://www.w3.org/2000/svg" version="1.1" x="0" y="0" viewBox="0 0 80 80" style="enable-background:new 0 0 80 80" xml:space="preserve" width="31" height="31"><path d="M40 49.007 15.714 73.293l-9.007-9.007L30.993 40 6.707 15.714l9.007-9.007L40 30.993 64.286 6.707l9.007 9.007L49.007 40l24.286 24.286-9.007 9.007z"/><path d="m15.714 7.414 23.578 23.578.708.708.707-.707L64.286 7.414l8.3 8.3-23.579 23.579L48.3 40l.707.707 23.578 23.579-8.3 8.3-23.578-23.579L40 48.3l-.707.707-23.579 23.579-8.3-8.3 23.579-23.579L31.7 40l-.707-.707L7.414 15.714l8.3-8.3M64.286 6 40 30.286 15.714 6 6 15.714 30.286 40 6 64.286 15.714 74 40 49.714 64.286 74 74 64.286 49.714 40 74 15.714 64.286 6z"/></svg>